<svg width="6" height="16" viewBox="0 0 6 16" fill="none" xmlns="http://www.w3.org/2000/svg">
<path d="M3 3.5C2.51667 3.5 2.104 3.329 1.762 2.987C1.42067 2.64567 1.25 2.23333 1.25 1.75C1.25 1.26667 1.42067 0.854 1.762 0.512C2.104 0.170667 2.51667 0 3 0C3.48333 0 3.896 0.170667 4.238 0.512C4.57933 0.854 4.75 1.26667 4.75 1.75C4.75 2.23333 4.57933 2.64567 4.238 2.987C3.896 3.329 3.48333 3.5 3 3.5ZM2 16C1.71667 16 1.47933 15.904 1.288 15.712C1.096 15.5207 1 15.2833 1 15V11C0.733333 11 0.5 10.9 0.3 10.7C0.1 10.5 0 10.2667 0 10V6.5C0 5.95 0.196 5.479 0.588 5.087C0.979334 4.69567 1.45 4.5 2 4.5H4C4.55 4.5 5.021 4.69567 5.413 5.087C5.80433 5.479 6 5.95 6 6.5V10C6 10.2667 5.9 10.5 5.7 10.7C5.5 10.9 5.26667 11 5 11V15C5 15.2833 4.90433 15.5207 4.713 15.712C4.521 15.904 4.28333 16 4 16H2Z" fill="black"/>
</svg>
