<svg width="16" height="20" viewBox="0 0 16 20" fill="none" xmlns="http://www.w3.org/2000/svg">
<path d="M7.99995 4C7.44995 4 6.97928 3.804 6.58795 3.412C6.19595 3.02067 5.99995 2.55 5.99995 2C5.99995 1.45 6.19595 0.979 6.58795 0.587C6.97928 0.195667 7.44995 0 7.99995 0C8.54995 0 9.02095 0.195667 9.41295 0.587C9.80428 0.979 9.99995 1.45 9.99995 2C9.99995 2.55 9.80428 3.02067 9.41295 3.412C9.02095 3.804 8.54995 4 7.99995 4ZM5.99995 20C5.71661 20 5.47928 19.904 5.28795 19.712C5.09595 19.5207 4.99995 19.2833 4.99995 19V6.775C3.66661 6.425 2.57095 5.72933 1.71295 4.688C0.85428 3.646 0.316613 2.45833 0.0999466 1.125C0.0499466 0.825 0.12928 0.562333 0.337947 0.337C0.545947 0.112333 0.816613 0 1.14995 0C1.38328 0 1.58761 0.0833333 1.76295 0.25C1.93761 0.416667 2.04161 0.616667 2.07495 0.85C2.25828 2.03333 2.77495 3.02067 3.62495 3.812C4.47495 4.604 5.51661 5 6.74995 5H9.24995C9.74995 5 10.2166 5.09167 10.6499 5.275C11.0833 5.45833 11.4749 5.725 11.8249 6.075L15.6499 9.9C15.8333 10.0833 15.9249 10.3167 15.9249 10.6C15.9249 10.8833 15.8333 11.1167 15.6499 11.3C15.4666 11.4833 15.2333 11.575 14.9499 11.575C14.6666 11.575 14.4333 11.4833 14.2499 11.3L10.9999 8.05V19C10.9999 19.2833 10.9043 19.5207 10.7129 19.712C10.5209 19.904 10.2833 20 9.99995 20C9.71661 20 9.47928 19.904 9.28795 19.712C9.09595 19.5207 8.99995 19.2833 8.99995 19V14H6.99995V19C6.99995 19.2833 6.90428 19.5207 6.71295 19.712C6.52095 19.904 6.28328 20 5.99995 20Z" fill="black"/>
</svg>
